<svg xmlns="http://www.w3.org/2000/svg" width="300" height="300" fill-rule="evenodd" stroke-linejoin="bevel" stroke-width=".501" overflow="visible" viewBox="0 0 225 225"><g fill="none" stroke="#000" stroke-linecap="round" stroke-linejoin="round" font-family="Times New Roman" font-size="16"><path fill="#00c8ff" stroke="none" d="M0 31.817v161.367C0 210.742 14.258 225 31.816 225h161.367C210.742 225 225 210.742 225 193.184V31.817C225 14.258 210.742 0 193.183 0H31.816C14.258 0 0 14.258 0 31.817Z"/><path fill="#4c4c4c" stroke="none" d="M104.672 96.755c8.688-3.824 18.856.128 22.679 8.816 3.824 8.688-.128 18.856-8.816 22.68-8.688 3.824-18.856-.128-22.68-8.816-3.823-8.688.128-18.856 8.817-22.68Z"/><path stroke="#474747" stroke-miterlimit="79.84" stroke-width="8.6" d="M97.269 79.937c17.966-7.907 38.993.266 46.9 18.232 7.907 17.966-.265 38.993-18.232 46.9-17.966 7.907-38.993-.266-46.9-18.232-7.906-17.966.266-38.993 18.232-46.9Z"/><path stroke="#fff" stroke-miterlimit="79.84" stroke-width="11.107" d="M169.511 55.214c31.601 31.938 31.332 83.583-.619 115.191m-115.19-.613c-31.601-31.951-31.339-83.583.612-115.191"/><path stroke="#fff" stroke-miterlimit="79.84" stroke-width="7.888" d="M152.754 71.789c22.451 22.707 22.263 59.408-.437 81.871m-81.865-.431c-22.45-22.707-22.263-59.414.438-81.883"/></g></svg>